# MAP01.wad, map MAP01
# Created by Ultimate Doom Builder 3.0.0.3955

o MAP01
v 96 0 -96
v 96 297.600011825562 -96
v 96 297.600011825562 96
v 96 0 96
v -96 297.600011825562 96
v -96 0 96
v -96 0 -96
v -96 297.600011825562 -96
vn 1 0 0
vn 0 0 1
vn 0 0 -1
vn -1 0 0
vn 0 1 0
vt 1.5 -1.9375
vt 1.5 0
vt 0 0
vt 0 -1.9375
vt 2 -1.9375
vt 2 0
vt 0.5 0
vt 0.5 -1.9375
vt -74.5 43.75
vt -74.5 42.25
vt -71.5 42.25
vt -71.5 43.75
usemtl SKIN2
f 1/1/1 2/2/1 3/3/1 4/4/1
f 4/1/2 3/2/2 5/3/2 6/4/2
f 7/1/3 8/2/3 2/3/3 1/4/3
f 6/5/4 5/6/4 8/7/4 7/8/4
usemtl SKSNAKE2
f 8/9/5 5/10/5 3/11/5
f 2/12/5 8/9/5 3/11/5
