# MAP01.wad, map MAP01
# Created by Ultimate Doom Builder 3.0.0.3951

o MAP01
v -192 0 192
v -192 76.8000030517578 192
v -192 76.8000030517578 -192
v -192 0 -192
v 192 76.8000030517578 -192
v 192 0 -192
v 192 76.8000030517578 192
v 192 0 192
v 24 76.8000030517578 -80
v 192 76.8000030517578 -80
v 24 76.8000030517578 -96
v 192 76.8000030517578 -48
v 8 76.8000030517578 -80
v 0 76.8000030517578 -48
v 0 76.8000030517578 -64
v 192 76.8000030517578 16
v -16 76.8000030517578 -48
v 80 76.8000030517578 -16
v 80 76.8000030517578 16
v 192 76.8000030517578 32
v 48 76.8000030517578 16
v 32 76.8000030517578 32
v 192 76.8000030517578 64
v -32 76.8000030517578 32
v 48 76.8000030517578 48
v 48 76.8000030517578 64
v -28 76.8000030517578 52
v 32 76.8000030517578 52
v 32 76.8000030517578 48
v -28 76.8000030517578 44
v -48 76.8000030517578 48
v -36 76.8000030517578 48
v -36 76.8000030517578 44
v -48 76.8000030517578 16
v -36 76.8000030517578 52
v -80 76.8000030517578 48
v 32 76.8000030517578 64
v 192 76.8000030517578 80
v 24 76.8000030517578 80
v 24 76.8000030517578 64
v -8 76.8000030517578 80
v 8 76.8000030517578 80
v 8 76.8000030517578 64
v -8 76.8000030517578 64
v -24 76.8000030517578 80
v 8 76.8000030517578 -96
v -16 76.8000030517578 -64
v 48 76.8000030517578 -16
v 32 76.8000030517578 -32
v -24 76.8000030517578 64
v -80 76.8000030517578 16
v -32 76.8000030517578 -32
vn -1 0 0
vn 0 0 -1
vn 1 0 0
vn 0 0 1
vn 0 1 0
vt 3.5 -0.5
vt 3.5 0
vt 0.5 0
vt 0.5 -0.5
vt 3 -0.5
vt 3 0
vt 0 0
vt 0 -0.5
vt -72.625 36.625
vt -70 36.625
vt -70 37.5
vt -72.625 36.75
vt -70 36.375
vt -72.875 36.625
vt -73 36.375
vt -73 36.5
vt -70 35.875
vt -73.25 36.375
vt -71.75 36.125
vt -71.75 35.875
vt -70 35.75
vt -72.25 35.875
vt -72.5 35.75
vt -70 35.5
vt -73.5 35.75
vt -72.25 35.625
vt -72.25 35.5
vt -73.4375 35.59375
vt -72.5 35.59375
vt -72.5 35.625
vt -73.4375 35.65625
vt -73.75 35.625
vt -73.5625 35.625
vt -73.5625 35.65625
vt -73.75 35.875
vt -73.5625 35.59375
vt -74.25 35.625
vt -72.5 35.5
vt -70 35.375
vt -72.625 35.375
vt -72.625 35.5
vt -73.125 35.375
vt -72.875 35.375
vt -72.875 35.5
vt -73.125 35.5
vt -70 34.5
vt -73.375 35.375
vt -76 34.5
vt -76 37.5
vt -72.875 36.75
vt -73.25 36.5
vt -72.25 36.125
vt -72.5 36.25
vt -73.375 35.5
vt -74.25 35.875
vt -73.5 36.25
vt -73.76563 36.20313
vt -73.26563 36.20313
vt -73.26563 36.45313
vt -73.76563 36.45313
vt -146.75 71.20313
vt -146.25 71.20313
vt -146.25 71.45313
vt -146.75 71.45313
vt -293.75 142.2188
vt -293.25 142.2188
vt -293.25 142.4688
vt -293.75 142.4688
vt -36.76563 18.20313
vt -36.26563 18.20313
vt -36.26563 18.45313
vt -36.76563 18.45313
vt -145.75 71.20313
vt -145.25 71.20313
vt -145.25 71.45313
vt -145.75 71.45313
vt -146.75 73.20313
vt -146.25 73.20313
vt -146.25 73.45313
vt -146.75 73.45313
vt -71.76563 36.21875
vt -71.26563 36.21875
vt -71.26563 36.46875
vt -71.76563 36.46875
vt -145.75 74.20313
vt -145.25 74.20313
vt -145.25 74.45313
vt -145.75 74.45313
usemtl SKIN2
f 1/1/1 2/2/1 3/3/1 4/4/1
f 4/5/2 3/6/2 5/7/2 6/8/2
f 6/5/3 5/6/3 7/7/3 8/8/3
f 8/5/4 7/6/4 2/7/4 1/8/4
usemtl SKSNAKE2
f 9/9/5 10/10/5 5/11/5
f 11/12/5 9/9/5 5/11/5
f 12/13/5 10/10/5 13/14/5
f 14/15/5 12/13/5 13/14/5
f 15/16/5 14/15/5 13/14/5
f 16/17/5 12/13/5 17/18/5
f 18/19/5 19/20/5 16/17/5
f 20/21/5 16/17/5 21/22/5
f 22/23/5 20/21/5 21/22/5
f 23/24/5 20/21/5 24/25/5
f 25/26/5 26/27/5 23/24/5
f 27/28/5 28/29/5 29/30/5
f 30/31/5 27/28/5 29/30/5
f 31/32/5 32/33/5 33/34/5
f 34/35/5 31/32/5 33/34/5
f 35/36/5 32/33/5 36/37/5
f 37/38/5 28/29/5 35/36/5
f 38/39/5 23/24/5 37/38/5
f 39/40/5 38/39/5 37/38/5
f 40/41/5 39/40/5 37/38/5
f 41/42/5 42/43/5 43/44/5
f 44/45/5 41/42/5 43/44/5
f 7/46/5 38/39/5 45/47/5
f 2/48/5 7/46/5 45/47/5
f 11/12/5 5/11/5 3/49/5
f 46/50/5 11/12/5 3/49/5
f 15/16/5 13/14/5 46/50/5
f 47/51/5 15/16/5 46/50/5
f 22/23/5 21/22/5 48/52/5
f 49/53/5 22/23/5 48/52/5
f 25/26/5 23/24/5 24/25/5
f 30/31/5 29/30/5 25/26/5
f 34/35/5 33/34/5 30/31/5
f 37/38/5 35/36/5 36/37/5
f 40/41/5 37/38/5 36/37/5
f 43/44/5 40/41/5 36/37/5
f 44/45/5 43/44/5 36/37/5
f 50/54/5 44/45/5 36/37/5
f 2/48/5 45/47/5 50/54/5
f 47/51/5 46/50/5 3/49/5
f 49/53/5 48/52/5 18/19/5
f 30/31/5 25/26/5 24/25/5
f 2/48/5 50/54/5 36/37/5
f 17/18/5 47/51/5 3/49/5
f 49/53/5 18/19/5 16/17/5
f 34/35/5 30/31/5 24/25/5
f 2/48/5 36/37/5 51/55/5
f 3/49/5 2/48/5 51/55/5
f 49/53/5 16/17/5 17/18/5
f 34/35/5 24/25/5 52/56/5
f 3/49/5 51/55/5 34/35/5
f 52/56/5 49/53/5 17/18/5
f 3/49/5 34/35/5 52/56/5
f 52/56/5 17/18/5 3/49/5
usemtl SW2SKIN
f 36/57/5 31/58/5 34/59/5
f 51/60/5 36/57/5 34/59/5
f 45/61/5 41/62/5 44/63/5
f 50/64/5 45/61/5 44/63/5
f 35/65/5 27/66/5 30/67/5
f 33/68/5 35/65/5 30/67/5
f 24/69/5 22/70/5 49/71/5
f 52/72/5 24/69/5 49/71/5
f 42/73/5 39/74/5 40/75/5
f 43/76/5 42/73/5 40/75/5
f 37/73/5 26/74/5 25/75/5
f 29/76/5 37/73/5 25/75/5
f 17/77/5 14/78/5 15/79/5
f 47/80/5 17/77/5 15/79/5
f 21/81/5 19/82/5 18/83/5
f 48/84/5 21/81/5 18/83/5
f 13/85/5 9/86/5 11/87/5
f 46/88/5 13/85/5 11/87/5
