# MAP01.wad, map MAP01
# Created by Ultimate Doom Builder 3.0.0.3955

o MAP01
v -24 0 6
v -24 19.2000007629395 6
v -32 19.2000007629395 -10
v -32 0 -10
v 30 0 -22
v 30 19.2000007629395 -22
v 32 19.2000007629395 -10
v 32 0 -10
v 24 19.2000007629395 6
v 24 0 6
v 0 0 30
v 0 19.2000007629395 30
v -30 19.2000007629395 -22
v -30 0 -22
v -8 0 -26
v -8 19.2000007629395 -26
v 0 19.2000007629395 -18
v 0 0 -18
v 8 0 -26
v 8 19.2000007629395 -26
v 20 19.2000007629395 -30
v 20 0 -30
v -20 19.2000007629395 -30
v -20 0 -30
vn -0.894427190999916 0 0.447213595499958
vn 0.986393923832144 0 -0.164398987305357
vn 0.894427190999916 0 0.447213595499958
vn -0.707106781186548 0 0.707106781186548
vn -0.986393923832144 0 -0.164398987305357
vn 0.707106781186548 0 0.707106781186548
vn 0.707106781186547 0 -0.707106781186547
vn -0.316227766016838 0 -0.948683298050514
vn 0.624695047554424 0 -0.78086880944303
vn -0.624695047554424 0 -0.78086880944303
vn -0.707106781186547 0 -0.707106781186547
vn 0.316227766016838 0 -0.948683298050514
vn 0 1 0
vn 0 -1 0
vt 0.328125 -0.125
vt 0.328125 0
vt 0.1875 0
vt 0.1875 -0.125
vt 0.484375 -0.125
vt 0.484375 0
vt 0.390625 0
vt 0.390625 -0.125
vt 0.40625 -0.125
vt 0.40625 0
vt 0.265625 0
vt 0.265625 -0.125
vt 0.71875 -0.125
vt 0.71875 0
vt 0.453125 0
vt 0.453125 -0.125
vt 0.140625 -0.125
vt 0.140625 0
vt 0.046875 0
vt 0.046875 -0.125
vt 0 0
vt 0 -0.125
vt 0.8359375 -0.125
vt 0.8359375 0
vt 0.75 0
vt 0.75 -0.125
vt 0.6796875 -0.125
vt 0.6796875 0
vt 0.578125 0
vt 0.578125 -0.125
vt 0.5859375 -0.125
vt 0.5859375 0
vt 1.046875 -0.125
vt 1.046875 0
vt 0.9453125 0
vt 0.9453125 -0.125
vt 0.6640625 0
vt 0.6640625 -0.125
vt 0.84375 0
vt 0.84375 -0.125
vt -27.25 46.5
vt -27.0625 46.6875
vt -27 46.8125
vt -27.4375 46.6875
vt -27.5 46.8125
vt -27.48438 46.90625
vt -27.3125 46.9375
vt -27.40625 46.96875
vt -27.25 46.875
vt -27.09375 46.96875
vt -27.1875 46.9375
vt -27.01563 46.90625
usemtl FIREBLU1
f 1/1/1 2/2/1 3/3/1 4/4/1
f 5/5/2 6/6/2 7/7/2 8/8/2
f 8/9/3 7/10/3 9/11/3 10/12/3
f 11/13/4 12/14/4 2/15/4 1/16/4
f 4/17/5 3/18/5 13/19/5 14/20/5
f 10/12/6 9/11/6 12/21/6 11/22/6
f 15/23/7 16/24/7 17/25/7 18/26/7
f 19/27/8 20/28/8 21/29/8 22/30/8
f 22/31/9 21/32/9 6/6/9 5/5/9
f 14/33/10 13/34/10 23/35/10 24/36/10
f 18/26/11 17/25/11 20/37/11 19/38/11
f 24/36/12 23/35/12 16/39/12 15/40/12
usemtl FIREBLU1
f 12/41/13 9/42/13 7/43/13
f 2/44/13 12/41/13 7/43/13
f 3/45/13 2/44/13 7/43/13
f 13/46/13 3/45/13 7/43/13
f 16/47/13 23/48/13 13/46/13
f 17/49/13 16/47/13 13/46/13
f 21/50/13 20/51/13 17/49/13
f 6/52/13 21/50/13 17/49/13
f 7/43/13 6/52/13 17/49/13
f 17/49/13 13/46/13 7/43/13
f 11/41/14 8/43/14 10/42/14
f 1/44/14 8/43/14 11/41/14
f 4/45/14 8/43/14 1/44/14
f 14/46/14 8/43/14 4/45/14
f 15/47/14 14/46/14 24/48/14
f 18/49/14 14/46/14 15/47/14
f 22/50/14 18/49/14 19/51/14
f 5/52/14 18/49/14 22/50/14
f 8/43/14 18/49/14 5/52/14
f 18/49/14 8/43/14 14/46/14
