# MAP01.wad, map MAP01
# Created by Ultimate Doom Builder 3.0.0.3955

o MAP01
v -96 0 96
v -96 297.600011825562 96
v -96 297.600011825562 -96
v -96 0 -96
v 24 0 -96
v 24 297.600011825562 -96
v 96 297.600011825562 -96
v 96 0 -96
v 96 297.600011825562 96
v 96 0 96
v 8 0 -96
v 8 297.600011825562 -96
v 0 297.600011825562 -48
v 96 297.600011825562 -48
v 0 297.600011825562 -64
v 80 297.600011825562 16
v 96 297.600011825562 16
v 80 297.600011825562 -16
v 96 297.600011825562 32
v 48 297.600011825562 16
v 32 297.600011825562 32
v 48 297.600011825562 64
v 96 297.600011825562 64
v 48 297.600011825562 48
v -28 297.600011825562 52
v 32 297.600011825562 52
v 32 297.600011825562 48
v -28 297.600011825562 44
v -48 297.600011825562 48
v -36 297.600011825562 48
v -36 297.600011825562 44
v -48 297.600011825562 16
v -36 297.600011825562 52
v -80 297.600011825562 48
v 32 297.600011825562 64
v 96 297.600011825562 80
v 24 297.600011825562 80
v 24 297.600011825562 64
v -8 297.600011825562 80
v 8 297.600011825562 80
v 8 297.600011825562 64
v -8 297.600011825562 64
v -24 297.600011825562 80
v 8 297.600011825562 -80
v 24 297.600011825562 -80
v -16 297.600011825562 -64
v 48 297.600011825562 -16
v 32 297.600011825562 -32
v -32 297.600011825562 32
v -24 297.600011825562 64
v -16 297.600011825562 -48
v -32 297.600011825562 -32
v -80 297.600011825562 16
vn -1 0 0
vn 0 0 -1
vn 1 0 0
vn 0 0 1
vn 0 1 0
vt 2 -1.9375
vt 2 0
vt 0.5 0
vt 0.5 -1.9375
vt 0.5625 -1.9375
vt 0.5625 0
vt 0 0
vt 0 -1.9375
vt 1.5 -1.9375
vt 1.5 0
vt 0.6875 -1.9375
vt 0.6875 0
vt -73 36.375
vt -71.5 36.375
vt -71.5 36.75
vt -73 36.5
vt -71.75 35.875
vt -71.5 35.875
vt -71.75 36.125
vt -71.5 35.75
vt -72.25 35.875
vt -72.5 35.75
vt -72.25 35.5
vt -71.5 35.5
vt -72.25 35.625
vt -73.4375 35.59375
vt -72.5 35.59375
vt -72.5 35.625
vt -73.4375 35.65625
vt -73.75 35.625
vt -73.5625 35.625
vt -73.5625 35.65625
vt -73.75 35.875
vt -73.5625 35.59375
vt -74.25 35.625
vt -72.5 35.5
vt -71.5 35.375
vt -72.625 35.375
vt -72.625 35.5
vt -73.125 35.375
vt -72.875 35.375
vt -72.875 35.5
vt -73.125 35.5
vt -71.5 35.25
vt -73.375 35.375
vt -74.5 35.25
vt -72.875 36.625
vt -72.875 36.75
vt -74.5 36.75
vt -72.625 36.75
vt -72.625 36.625
vt -73.25 36.5
vt -72.25 36.125
vt -72.5 36.25
vt -73.5 35.75
vt -73.375 35.5
vt -73.25 36.375
vt -73.5 36.25
vt -74.25 35.875
vt -73.76563 36.20313
vt -73.26563 36.20313
vt -73.26563 36.45313
vt -73.76563 36.45313
vt -146.75 71.20313
vt -146.25 71.20313
vt -146.25 71.45313
vt -146.75 71.45313
vt -293.75 142.2188
vt -293.25 142.2188
vt -293.25 142.4688
vt -293.75 142.4688
vt -36.76563 18.20313
vt -36.26563 18.20313
vt -36.26563 18.45313
vt -36.76563 18.45313
vt -145.75 71.20313
vt -145.25 71.20313
vt -145.25 71.45313
vt -145.75 71.45313
vt -146.75 73.20313
vt -146.25 73.20313
vt -146.25 73.45313
vt -146.75 73.45313
vt -71.76563 36.21875
vt -71.26563 36.21875
vt -71.26563 36.46875
vt -71.76563 36.46875
vt -145.75 74.20313
vt -145.25 74.20313
vt -145.25 74.45313
vt -145.75 74.45313
usemtl SKIN2
f 1/1/1 2/2/1 3/3/1 4/4/1
f 5/5/2 6/6/2 7/7/2 8/8/2
f 8/9/3 7/10/3 9/7/3 10/8/3
f 10/9/4 9/10/4 2/7/4 1/8/4
f 11/11/2 12/12/2 6/6/2 5/5/2
f 4/9/2 3/10/2 12/12/2 11/11/2
usemtl SKSNAKE2
f 13/13/5 14/14/5 7/15/5
f 15/16/5 13/13/5 7/15/5
f 16/17/5 17/18/5 14/14/5
f 18/19/5 16/17/5 14/14/5
f 19/20/5 17/18/5 20/21/5
f 21/22/5 19/20/5 20/21/5
f 22/23/5 23/24/5 19/20/5
f 24/25/5 22/23/5 19/20/5
f 25/26/5 26/27/5 27/28/5
f 28/29/5 25/26/5 27/28/5
f 29/30/5 30/31/5 31/32/5
f 32/33/5 29/30/5 31/32/5
f 33/34/5 30/31/5 34/35/5
f 35/36/5 26/27/5 33/34/5
f 36/37/5 23/24/5 35/36/5
f 37/38/5 36/37/5 35/36/5
f 38/39/5 37/38/5 35/36/5
f 39/40/5 40/41/5 41/42/5
f 42/43/5 39/40/5 41/42/5
f 9/44/5 36/37/5 43/45/5
f 2/46/5 9/44/5 43/45/5
f 44/47/5 12/48/5 3/49/5
f 7/15/5 6/50/5 45/51/5
f 46/52/5 15/16/5 7/15/5
f 47/53/5 18/19/5 14/14/5
f 21/22/5 20/21/5 47/53/5
f 48/54/5 21/22/5 47/53/5
f 24/25/5 19/20/5 49/55/5
f 27/28/5 24/25/5 49/55/5
f 28/29/5 27/28/5 49/55/5
f 32/33/5 31/32/5 28/29/5
f 35/36/5 33/34/5 34/35/5
f 38/39/5 35/36/5 34/35/5
f 41/42/5 38/39/5 34/35/5
f 42/43/5 41/42/5 34/35/5
f 50/56/5 42/43/5 34/35/5
f 2/46/5 43/45/5 50/56/5
f 46/52/5 7/15/5 45/51/5
f 48/54/5 47/53/5 14/14/5
f 32/33/5 28/29/5 49/55/5
f 2/46/5 50/56/5 34/35/5
f 46/52/5 45/51/5 44/47/5
f 48/54/5 14/14/5 51/57/5
f 52/58/5 48/54/5 51/57/5
f 32/33/5 49/55/5 52/58/5
f 2/46/5 34/35/5 53/59/5
f 3/49/5 2/46/5 53/59/5
f 46/52/5 44/47/5 3/49/5
f 52/58/5 51/57/5 46/52/5
f 53/59/5 32/33/5 52/58/5
f 3/49/5 53/59/5 52/58/5
f 46/52/5 3/49/5 52/58/5
usemtl SW2SKIN
f 34/60/5 29/61/5 32/62/5
f 53/63/5 34/60/5 32/62/5
f 43/64/5 39/65/5 42/66/5
f 50/67/5 43/64/5 42/66/5
f 33/68/5 25/69/5 28/70/5
f 31/71/5 33/68/5 28/70/5
f 49/72/5 21/73/5 48/74/5
f 52/75/5 49/72/5 48/74/5
f 40/76/5 37/77/5 38/78/5
f 41/79/5 40/76/5 38/78/5
f 35/76/5 22/77/5 24/78/5
f 27/79/5 35/76/5 24/78/5
f 51/80/5 13/81/5 15/82/5
f 46/83/5 51/80/5 15/82/5
f 20/84/5 16/85/5 18/86/5
f 47/87/5 20/84/5 18/86/5
f 44/88/5 45/89/5 6/90/5
f 12/91/5 44/88/5 6/90/5
